<svg width="44" height="33" viewBox="0 0 44 33" fill="none" xmlns="http://www.w3.org/2000/svg">
<g clip-path="url(#clip0)">
<path d="M37.4262 31.451C37.3944 31.3909 37.3944 31.3457 37.3785 31.3608C37.3627 31.3608 37.3309 31.3909 37.2991 31.3909C37.1404 31.4661 36.8704 31.5714 36.4893 31.5714C35.7589 31.5714 35.092 31.0299 35.092 30.1725C35.092 29.225 35.6319 28.7136 36.3782 28.7136C36.791 28.7136 37.0768 28.8189 37.3468 28.9843C37.4738 28.5481 37.6961 28.142 37.9502 27.8111C37.839 27.7359 37.6644 27.6306 37.4262 27.5253C37.061 27.3749 36.664 27.2847 36.2035 27.2847C34.568 27.2847 33.3295 28.3375 33.3295 30.1425C33.3295 31.9474 34.568 32.9852 36.2035 32.9852C36.9975 32.9852 37.6008 32.7446 37.6008 32.7446C37.7279 32.6994 37.9502 32.5941 38.0296 32.5641C37.6802 32.0828 37.5056 31.6315 37.4262 31.451Z" fill="#5B5B5F"/>
<path d="M0 25.5698H3.20751C4.44605 25.5698 5.36701 26.1715 5.36701 27.4199C5.36701 28.3374 4.93829 28.8488 4.19199 29.1195V29.1345C5.0812 29.3301 5.5258 29.8565 5.5258 30.7439C5.5258 32.4887 4.12847 32.8497 2.93757 32.8497H0V25.5698ZM1.76254 31.4809H2.44533C3.09635 31.4809 3.76326 31.3757 3.76326 30.6386C3.76326 29.8415 3.0646 29.7663 2.46121 29.7663H1.76254V31.4809ZM1.76254 28.4577H2.41357C2.9852 28.4577 3.5886 28.3073 3.5886 27.6906C3.5886 27.0138 3.01696 26.9536 2.42945 26.9536H1.76254V28.4577Z" fill="#5B5B5F"/>
<path d="M21.7697 32.8646H20.1977V32.0524H20.166C19.8325 32.6541 19.1974 33 18.4669 33C16.9902 33 16.2122 31.6613 16.2122 30.052C16.2122 28.7133 16.9585 27.2994 18.324 27.2994C19.0068 27.2994 19.5784 27.495 20.023 28.1267H20.0389V25.5547H21.7538V32.8646H21.7697ZM19.0068 31.5561C19.5784 31.5561 20.0548 30.9544 20.0548 30.1572C20.0548 29.33 19.642 28.7434 19.0068 28.7434C18.3399 28.7434 17.9747 29.3751 17.9747 30.0971C17.9747 30.9544 18.3558 31.5561 19.0068 31.5561Z" fill="#5B5B5F"/>
<path d="M38.2518 30.1424C38.2518 28.3375 39.4904 27.2847 41.1259 27.2847C42.7614 27.2847 43.9999 28.3375 43.9999 30.1424C43.9999 31.9474 42.7614 32.9852 41.1259 32.9852C39.4904 33.0002 38.2518 31.9474 38.2518 30.1424ZM42.2374 30.1424C42.2374 29.3302 41.9198 28.6083 41.1259 28.6083C40.3319 28.6083 40.0144 29.3302 40.0144 30.1424C40.0144 30.9547 40.3319 31.6766 41.1259 31.6766C41.9198 31.6766 42.2374 30.9547 42.2374 30.1424Z" fill="#5B5B5F"/>
<path d="M15.4183 32.8645C15.3389 32.4283 15.3231 32.0071 15.3231 31.586V29.5555C15.3231 27.8859 14.2274 27.2993 12.973 27.2993C12.2585 27.2993 11.6233 27.4196 11.0199 27.6753V28.9538V28.9689C11.4963 28.6831 12.052 28.5628 12.5919 28.5628C13.2112 28.5628 13.7034 28.7583 13.7193 29.5103C13.497 29.4652 13.1953 29.4351 12.9254 29.4351C12.0203 29.4351 10.3689 29.6307 10.3689 31.3002C10.3689 32.4884 11.2422 33.0149 12.2267 33.0149C12.8777 33.0149 13.4335 32.7291 13.7511 32.1726V32.8945H15.4183V32.8645ZM13.7352 31.1348C13.5129 31.5108 13.1318 31.7063 12.6713 31.7063C12.2743 31.7063 11.9726 31.4807 11.9726 31.1047C11.9726 30.5782 12.4331 30.3827 13.0048 30.3827C13.2588 30.3827 13.5129 30.3978 13.7352 30.4128V31.1348Z" fill="#5B5B5F"/>
<path d="M9.54309 27.2847C8.79679 27.2847 8.36807 27.7209 8.08225 28.4127H8.06637V27.405H6.51025V32.8498H8.22516V30.5486C8.22516 29.4807 8.66976 28.8339 9.4637 28.7888C9.62249 28.7737 9.9083 28.8189 10.0512 28.879V27.3749C9.89243 27.3298 9.686 27.2847 9.54309 27.2847Z" fill="#5B5B5F"/>
<path d="M27.7878 30.3526C27.7878 28.7282 27.1209 27.2993 25.2948 27.2993C23.7546 27.2993 22.6431 28.3522 22.6431 30.1421C22.6431 31.947 23.8816 32.9999 25.5171 32.9999C26.1523 32.9999 26.7874 32.8946 27.3273 32.6539V31.3303C26.8192 31.6311 26.2793 31.7515 25.8188 31.7515C24.9772 31.7515 24.4532 31.4506 24.358 30.6986H27.7878V30.3526ZM24.358 29.6307C24.3897 28.999 24.6914 28.4876 25.3107 28.4876C25.9935 28.4876 26.2634 28.999 26.2634 29.6307H24.358Z" fill="#5B5B5F"/>
<path d="M30.6618 27.2847C29.6773 27.2847 28.5499 27.7961 28.5499 29.0595C28.5499 31.0299 30.9794 30.3831 30.9794 31.3006C30.9794 31.6766 30.6301 31.7368 30.2807 31.7368C29.6614 31.7368 29.0739 31.5563 28.677 31.3608V32.6543C29.1216 32.8348 29.6614 32.9852 30.376 32.9852C31.5034 32.9852 32.6784 32.6242 32.6784 31.1653C32.6784 29.0896 30.1378 29.7664 30.1378 28.9091C30.1378 28.6083 30.5507 28.518 30.9318 28.5331C31.3287 28.5481 31.9321 28.6985 32.2973 28.9392V27.6005C31.7892 27.405 31.2176 27.2847 30.6618 27.2847Z" fill="#5B5B5F"/>
<path d="M33.4248 21.9148H15.3547C15.3547 21.9148 10.2894 21.9148 10.2894 17.1167V0H28.3594C28.3594 0 33.4248 0 33.4248 4.79809V21.9148Z" fill="#BA0038"/>
<path d="M20.817 18.8313H19.6896V13.3113H20.817V18.8313Z" fill="white"/>
<path d="M23.7228 18.8312H21.8491V11.2505H23.7228V18.8312Z" fill="white"/>
<path d="M18.6575 5.95615C18.6575 5.95615 20.5312 4.21139 23.707 4.78295C23.707 4.78295 25.1043 4.99352 26.1682 5.88094C26.1682 5.88094 26.327 6.01631 26.454 5.91102C26.454 5.91102 26.6128 5.79069 26.4381 5.62524C26.4381 5.62524 25.5171 4.42196 23.707 3.88048C23.707 3.88048 21.214 3.03819 18.6575 4.1813C18.6575 4.1813 17.0855 4.79799 16.2122 6.48258C16.2122 6.48258 14.9737 6.85861 14.0368 7.35496C14.0368 7.35496 13.7669 7.46025 13.8622 7.65578C13.8622 7.65578 13.9574 7.80619 14.1956 7.68586C14.1956 7.68586 15.0689 7.40008 15.8946 7.21959C15.8946 7.21959 15.2277 8.8741 15.9264 10.9197C16.244 11.8372 16.8156 12.7697 17.6731 13.5067C17.6731 13.5067 17.816 13.6421 17.9747 13.5519C17.9747 13.5519 18.1018 13.4616 18.0224 13.3112C18.0224 13.3112 17.3237 12.3185 17.0538 10.9046C16.8315 9.76153 16.9426 8.16718 17.7842 6.90373C17.7842 6.90373 20.9917 6.48258 23.7228 7.46025C23.7228 7.46025 28.3594 8.88915 27.2003 11.5514C27.2003 11.5514 26.8668 12.484 25.5807 13.3112C25.5807 13.3112 25.3583 13.4315 25.4854 13.597C25.4854 13.597 25.5807 13.7324 25.803 13.6421C25.803 13.6421 27.7719 13.0405 28.6135 11.5364C28.6135 11.5364 30.3284 9.03956 26.2793 7.00902C26.2793 7.00902 25.1678 6.43746 23.7387 6.13664C23.707 6.21184 21.1187 5.6102 18.6575 5.95615Z" fill="white"/>
</g>
<defs>
<clipPath id="clip0">
<rect width="44" height="33" fill="white"/>
</clipPath>
</defs>
</svg>
