<svg width="51" height="42" viewBox="0 0 51 42" fill="none" xmlns="http://www.w3.org/2000/svg">
<path d="M8.94592 21.7981H4.11592C2.77192 21.7981 1.72192 20.7061 1.72192 19.4041V17.8081C1.72192 16.4641 2.81392 15.4141 4.11592 15.4141H9.74392V17.0101H4.11592C3.65392 17.0101 3.31792 17.3881 3.31792 17.8081V19.4041C3.31792 19.8661 3.69592 20.2021 4.11592 20.2021H8.94592V21.7981Z" fill="#103B48"/>
<path d="M27.426 15.3721H14.574V16.9681H27.426V15.3721Z" fill="#103B48"/>
<path d="M37.8839 21.7981H33.0539V20.2021H37.8839C38.3459 20.2021 38.6819 19.8241 38.6819 19.4041V17.8081C38.6819 17.3461 38.3039 17.0101 37.8839 17.0101H32.2559V15.4141H37.8839C39.2279 15.4141 40.2779 16.5061 40.2779 17.8081V19.4041C40.2779 20.7061 39.1859 21.7981 37.8839 21.7981Z" fill="#103B48"/>
<path d="M31.92 36.246H10.08C8.56796 36.246 7.26596 35.196 6.92996 33.726L4.15796 21.168L5.71196 20.832L8.52596 33.39C8.69396 34.146 9.32396 34.65 10.08 34.65H31.92C32.676 34.65 33.306 34.146 33.474 33.39L36.288 20.832L37.842 21.168L35.028 33.726C34.734 35.238 33.432 36.246 31.92 36.246Z" fill="#103B48"/>
<path d="M20.9999 32.256C20.5379 32.256 20.2019 31.8779 20.2019 31.4579V23.3939C20.2019 22.9319 20.5799 22.5959 20.9999 22.5959C21.4199 22.5959 21.7979 22.9739 21.7979 23.3939V31.416C21.7979 31.878 21.4619 32.256 20.9999 32.256Z" fill="#103B48"/>
<path d="M25.032 32.2561C24.99 32.2561 24.99 32.2561 24.948 32.2561C24.486 32.2141 24.192 31.8361 24.234 31.3741L25.032 23.3521C25.074 22.9321 25.452 22.5961 25.914 22.6381C26.376 22.6801 26.67 23.0581 26.628 23.5201L25.83 31.5421C25.788 31.9201 25.41 32.2561 25.032 32.2561Z" fill="#103B48"/>
<path d="M29.0218 32.2561C28.9798 32.2561 28.8958 32.2561 28.8538 32.2561C28.4338 32.1721 28.1398 31.7521 28.2238 31.2901L29.8198 23.2681C29.9038 22.8481 30.3238 22.5541 30.7858 22.6381C31.2058 22.7221 31.4998 23.1421 31.4158 23.6041L29.8198 31.5841C29.7358 31.9621 29.3998 32.2561 29.0218 32.2561Z" fill="#103B48"/>
<path d="M16.968 32.2561C16.548 32.2561 16.212 31.9621 16.17 31.5421L15.372 23.5201C15.33 23.0581 15.666 22.6801 16.086 22.6381C16.548 22.5961 16.926 22.9321 16.968 23.3521L17.766 31.3741C17.808 31.8361 17.472 32.2141 17.052 32.2561C17.052 32.2561 17.01 32.2561 16.968 32.2561Z" fill="#103B48"/>
<path d="M12.9779 32.2561C12.5999 32.2561 12.2639 32.0041 12.1799 31.6261L10.5839 23.6041C10.4999 23.1841 10.7939 22.7641 11.2139 22.6381C11.6339 22.5541 12.0539 22.8481 12.1799 23.2681L13.7759 31.2901C13.8599 31.7101 13.5659 32.1301 13.1459 32.2561C13.0619 32.2561 13.0199 32.2561 12.9779 32.2561Z" fill="#103B48"/>
<path d="M11.3819 19.404C11.2979 19.404 11.1719 19.404 11.0879 19.362C10.6679 19.194 10.4579 18.732 10.6259 18.312L15.4559 6.25803C15.6239 5.83803 16.0859 5.62803 16.5059 5.79603C16.9259 5.96403 17.1359 6.42603 16.9679 6.84603L12.0959 18.9C11.9699 19.194 11.6759 19.404 11.3819 19.404Z" fill="#103B48"/>
<path d="M30.6179 19.404C30.2819 19.404 29.9879 19.194 29.8619 18.9L25.0739 6.84603C24.9059 6.42603 25.1159 5.96403 25.5359 5.79603C25.9559 5.62803 26.4179 5.83803 26.5859 6.25803L31.4159 18.312C31.5839 18.732 31.3739 19.194 30.9539 19.362C30.8279 19.362 30.7439 19.404 30.6179 19.404Z" fill="#103B48"/>
<circle cx="43" cy="16" r="8" fill="#E7C71E"/>
<path d="M39.77 11.86C40.6633 11.86 41.35 12.1633 41.83 12.77C42.3167 13.37 42.56 14.23 42.56 15.35C42.56 16.1167 42.4467 16.7833 42.22 17.35C41.9933 17.91 41.6667 18.34 41.24 18.64C40.82 18.94 40.3233 19.09 39.75 19.09C39.37 19.09 38.9867 19.0233 38.6 18.89C38.22 18.75 37.8967 18.5633 37.63 18.33C37.5433 18.2567 37.48 18.1867 37.44 18.12C37.4067 18.0467 37.39 17.96 37.39 17.86C37.39 17.7133 37.43 17.59 37.51 17.49C37.5967 17.3833 37.6967 17.33 37.81 17.33C37.8767 17.33 37.94 17.3433 38 17.37C38.06 17.39 38.1333 17.4267 38.22 17.48C38.7733 17.8667 39.2667 18.06 39.7 18.06C40.1867 18.06 40.57 17.8367 40.85 17.39C41.13 16.9367 41.2767 16.3033 41.29 15.49C41.1367 15.79 40.9067 16.03 40.6 16.21C40.2933 16.3833 39.95 16.47 39.57 16.47C39.15 16.47 38.7767 16.3767 38.45 16.19C38.1233 15.9967 37.8667 15.73 37.68 15.39C37.5 15.0433 37.41 14.65 37.41 14.21C37.41 13.7567 37.51 13.3533 37.71 13C37.9167 12.64 38.1967 12.36 38.55 12.16C38.91 11.96 39.3167 11.86 39.77 11.86ZM39.84 15.45C40.2133 15.45 40.5133 15.3333 40.74 15.1C40.9733 14.86 41.09 14.55 41.09 14.17C41.09 13.7833 40.9733 13.4733 40.74 13.24C40.5133 13 40.2133 12.88 39.84 12.88C39.4733 12.88 39.18 13 38.96 13.24C38.74 13.4733 38.63 13.7833 38.63 14.17C38.63 14.5567 38.74 14.8667 38.96 15.1C39.18 15.3333 39.4733 15.45 39.84 15.45ZM45.7661 11.86C46.6594 11.86 47.3461 12.1633 47.8261 12.77C48.3128 13.37 48.5561 14.23 48.5561 15.35C48.5561 16.1167 48.4428 16.7833 48.2161 17.35C47.9894 17.91 47.6628 18.34 47.2361 18.64C46.8161 18.94 46.3194 19.09 45.7461 19.09C45.3661 19.09 44.9828 19.0233 44.5961 18.89C44.2161 18.75 43.8928 18.5633 43.6261 18.33C43.5394 18.2567 43.4761 18.1867 43.4361 18.12C43.4028 18.0467 43.3861 17.96 43.3861 17.86C43.3861 17.7133 43.4261 17.59 43.5061 17.49C43.5928 17.3833 43.6928 17.33 43.8061 17.33C43.8728 17.33 43.9361 17.3433 43.9961 17.37C44.0561 17.39 44.1294 17.4267 44.2161 17.48C44.7694 17.8667 45.2628 18.06 45.6961 18.06C46.1828 18.06 46.5661 17.8367 46.8461 17.39C47.1261 16.9367 47.2728 16.3033 47.2861 15.49C47.1328 15.79 46.9028 16.03 46.5961 16.21C46.2894 16.3833 45.9461 16.47 45.5661 16.47C45.1461 16.47 44.7728 16.3767 44.4461 16.19C44.1194 15.9967 43.8628 15.73 43.6761 15.39C43.4961 15.0433 43.4061 14.65 43.4061 14.21C43.4061 13.7567 43.5061 13.3533 43.7061 13C43.9128 12.64 44.1928 12.36 44.5461 12.16C44.9061 11.96 45.3128 11.86 45.7661 11.86ZM45.8361 15.45C46.2094 15.45 46.5094 15.3333 46.7361 15.1C46.9694 14.86 47.0861 14.55 47.0861 14.17C47.0861 13.7833 46.9694 13.4733 46.7361 13.24C46.5094 13 46.2094 12.88 45.8361 12.88C45.4694 12.88 45.1761 13 44.9561 13.24C44.7361 13.4733 44.6261 13.7833 44.6261 14.17C44.6261 14.5567 44.7361 14.8667 44.9561 15.1C45.1761 15.3333 45.4694 15.45 45.8361 15.45Z" fill="white"/>
</svg>
