<svg width="41" height="41" viewBox="0 0 41 41" fill="none" xmlns="http://www.w3.org/2000/svg">
<path d="M33.5196 26.9618C32.5178 26.9618 31.5661 27.3542 30.8481 28.0638C30.1301 28.7818 29.7294 29.7168 29.7294 30.7187C29.7294 31.7205 30.1218 32.6555 30.8481 33.3735C31.5744 34.0832 32.5178 34.4755 33.5196 34.4755C35.5734 34.4755 37.2431 32.7891 37.2431 30.7187C37.2431 28.6482 35.5734 26.9618 33.5196 26.9618ZM33.5196 32.8058C32.3675 32.8058 31.3991 31.8541 31.3991 30.7187C31.3991 29.5833 32.3675 28.6315 33.5196 28.6315C34.6551 28.6315 35.5734 29.5666 35.5734 30.7187C35.5734 31.8708 34.6551 32.8058 33.5196 32.8058ZM34.4881 14.4472C34.3378 14.3053 34.1374 14.2302 33.9287 14.2302H29.6459C29.1867 14.2302 28.811 14.6059 28.811 15.065V21.9109C28.811 22.3701 29.1867 22.7458 29.6459 22.7458H36.4417C36.9008 22.7458 37.2765 22.3701 37.2765 21.9109V17.3275C37.2765 17.0937 37.1763 16.8683 37.001 16.7097L34.4881 14.4472ZM35.6068 21.076H30.4808V15.8916H33.6031L35.6068 17.6948V21.076ZM13.1324 26.9618C12.1305 26.9618 11.1788 27.3542 10.4608 28.0638C9.74282 28.7818 9.34209 29.7168 9.34209 30.7187C9.34209 31.7205 9.73447 32.6555 10.4608 33.3735C11.1871 34.0832 12.1305 34.4755 13.1324 34.4755C15.1861 34.4755 16.8558 32.7891 16.8558 30.7187C16.8558 28.6482 15.1861 26.9618 13.1324 26.9618ZM13.1324 32.8058C11.9802 32.8058 11.0118 31.8541 11.0118 30.7187C11.0118 29.5833 11.9802 28.6315 13.1324 28.6315C14.2678 28.6315 15.1861 29.5666 15.1861 30.7187C15.1861 31.8708 14.2678 32.8058 13.1324 32.8058ZM7.56384 27.9887H5.88577V25.7679C5.88577 25.3088 5.51008 24.9331 5.05091 24.9331C4.59173 24.9331 4.21605 25.3088 4.21605 25.7679V28.8235C4.21605 29.2827 4.59173 29.6584 5.05091 29.6584H7.56384C8.02301 29.6584 8.3987 29.2827 8.3987 28.8235C8.3987 28.3644 8.02301 27.9887 7.56384 27.9887ZM11.7966 23.4387C11.7966 22.9795 11.4209 22.6038 10.9617 22.6038H0.834861C0.375687 22.6038 0 22.9795 0 23.4387C0 23.8979 0.375687 24.2735 0.834861 24.2735H10.9617C11.4209 24.2735 11.7966 23.9062 11.7966 23.4387ZM2.52963 20.4248L12.6565 20.4833C13.1157 20.4833 13.4913 20.1159 13.4997 19.6568C13.508 19.1892 13.1324 18.8136 12.6732 18.8136L2.54632 18.7551C2.53798 18.7551 2.53798 18.7551 2.53798 18.7551C2.0788 18.7551 1.70312 19.1225 1.70312 19.5816C1.69477 20.0492 2.07045 20.4248 2.52963 20.4248ZM4.23274 16.6346H14.3596C14.8188 16.6346 15.1945 16.2589 15.1945 15.7997C15.1945 15.3405 14.8188 14.9649 14.3596 14.9649H4.23274C3.77357 14.9649 3.39788 15.3405 3.39788 15.7997C3.39788 16.2589 3.77357 16.6346 4.23274 16.6346ZM40.6911 15.5075L34.7135 10.5568C34.5632 10.4316 34.3796 10.3648 34.1792 10.3648H27.1497V7.35927C27.1497 6.9001 26.774 6.52441 26.3148 6.52441H5.05091C4.59173 6.52441 4.21605 6.9001 4.21605 7.35927V13.4705C4.21605 13.9296 4.59173 14.3053 5.05091 14.3053C5.51008 14.3053 5.88577 13.9296 5.88577 13.4705V8.19414H25.4883V27.9887H18.6424C18.1833 27.9887 17.8076 28.3644 17.8076 28.8235C17.8076 29.2827 18.1833 29.6584 18.6424 29.6584H28.8361C29.2953 29.6584 29.6709 29.2827 29.6709 28.8235C29.6709 28.3644 29.2953 27.9887 28.8361 27.9887H27.158V12.0345H33.887L39.3303 16.5427L39.2718 27.972H38.4036C37.9444 27.972 37.5687 28.3477 37.5687 28.8068C37.5687 29.266 37.9444 29.6417 38.4036 29.6417H40.0984C40.5575 29.6417 40.9332 29.2744 40.9332 28.8152L41 16.1587C40.9916 15.9082 40.8831 15.6661 40.6911 15.5075Z" fill="white"/>
</svg>
