<svg width="1920" height="760" viewBox="0 0 1920 760" fill="none" xmlns="http://www.w3.org/2000/svg">
<path d="M23 0L0 27H46L23 0Z" fill="#FFDC23"/>
<path d="M69 0L46 27H92L69 0Z" fill="#FFDC23"/>
<path d="M114.5 0L92 27H137L114.5 0Z" fill="#FFDC23"/>
<path d="M160 0L137 27H183L160 0Z" fill="#FFDC23"/>
<path d="M206 0L183 27H229L206 0Z" fill="#FFDC23"/>
<path d="M252 0L229 27H275L252 0Z" fill="#FFDC23"/>
<path d="M298 0L275 27H321L298 0Z" fill="#FFDC23"/>
<path d="M344 0L321 27H367L344 0Z" fill="#FFDC23"/>
<path d="M389.5 0L367 27H412L389.5 0Z" fill="#FFDC23"/>
<path d="M435 0L412 27H458L435 0Z" fill="#FFDC23"/>
<path d="M481 0L458 27H504L481 0Z" fill="#FFDC23"/>
<path d="M527 0L504 27H550L527 0Z" fill="#FFDC23"/>
<path d="M573 0L550 27H596L573 0Z" fill="#FFDC23"/>
<path d="M619 0L596 27H642L619 0Z" fill="#FFDC23"/>
<path d="M664.5 0L642 27H687L664.5 0Z" fill="#FFDC23"/>
<path d="M710 0L687 27H733L710 0Z" fill="#FFDC23"/>
<path d="M756 0L733 27H779L756 0Z" fill="#FFDC23"/>
<path d="M802 0L779 27H825L802 0Z" fill="#FFDC23"/>
<path d="M843 0L820 27H866L843 0Z" fill="#FFDC23"/>
<path d="M889 0L866 27H912L889 0Z" fill="#FFDC23"/>
<path d="M935 0L912 27H958L935 0Z" fill="#FFDC23"/>
<path d="M980.5 0L958 27H1003L980.5 0Z" fill="#FFDC23"/>
<path d="M1026 0L1003 27H1049L1026 0Z" fill="#FFDC23"/>
<path d="M1072 0L1049 27H1095L1072 0Z" fill="#FFDC23"/>
<path d="M1118 0L1095 27H1141L1118 0Z" fill="#FFDC23"/>
<path d="M1164 0L1141 27H1187L1164 0Z" fill="#FFDC23"/>
<path d="M1210 0L1187 27H1233L1210 0Z" fill="#FFDC23"/>
<path d="M1255.5 0L1233 27H1278L1255.5 0Z" fill="#FFDC23"/>
<path d="M1301 0L1278 27H1324L1301 0Z" fill="#FFDC23"/>
<path d="M1347 0L1324 27H1370L1347 0Z" fill="#FFDC23"/>
<path d="M1393 0L1370 27H1416L1393 0Z" fill="#FFDC23"/>
<path d="M1439 0L1416 27H1462L1439 0Z" fill="#FFDC23"/>
<path d="M1485 0L1462 27H1508L1485 0Z" fill="#FFDC23"/>
<path d="M1530.5 0L1508 27H1553L1530.5 0Z" fill="#FFDC23"/>
<path d="M1576 0L1553 27H1599L1576 0Z" fill="#FFDC23"/>
<path d="M1622 0L1599 27H1645L1622 0Z" fill="#FFDC23"/>
<path d="M1668 0L1645 27H1691L1668 0Z" fill="#FFDC23"/>
<path d="M1714 0L1691 27H1737L1714 0Z" fill="#FFDC23"/>
<path d="M1760 0L1737 27H1783L1760 0Z" fill="#FFDC23"/>
<path d="M1805.5 0L1783 27H1828L1805.5 0Z" fill="#FFDC23"/>
<path d="M1851 0L1828 27H1874L1851 0Z" fill="#FFDC23"/>
<path d="M1897 0L1874 27H1920L1897 0Z" fill="#FFDC23"/>
<path d="M0 26H1920V387H0V26Z" fill="#FFDC23"/>
<path d="M23 760L0 733H46L23 760Z" fill="#FFDC23"/>
<path d="M69 760L46 733H92L69 760Z" fill="#FFDC23"/>
<path d="M114.5 760L92 733H137L114.5 760Z" fill="#FFDC23"/>
<path d="M160 760L137 733H183L160 760Z" fill="#FFDC23"/>
<path d="M206 760L183 733H229L206 760Z" fill="#FFDC23"/>
<path d="M252 760L229 733H275L252 760Z" fill="#FFDC23"/>
<path d="M298 760L275 733H321L298 760Z" fill="#FFDC23"/>
<path d="M344 760L321 733H367L344 760Z" fill="#FFDC23"/>
<path d="M389.5 760L367 733H412L389.5 760Z" fill="#FFDC23"/>
<path d="M435 760L412 733H458L435 760Z" fill="#FFDC23"/>
<path d="M481 760L458 733H504L481 760Z" fill="#FFDC23"/>
<path d="M527 760L504 733H550L527 760Z" fill="#FFDC23"/>
<path d="M573 760L550 733H596L573 760Z" fill="#FFDC23"/>
<path d="M619 760L596 733H642L619 760Z" fill="#FFDC23"/>
<path d="M664.5 760L642 733H687L664.5 760Z" fill="#FFDC23"/>
<path d="M710 760L687 733H733L710 760Z" fill="#FFDC23"/>
<path d="M756 760L733 733H779L756 760Z" fill="#FFDC23"/>
<path d="M802 760L779 733H825L802 760Z" fill="#FFDC23"/>
<path d="M843 760L820 733H866L843 760Z" fill="#FFDC23"/>
<path d="M889 760L866 733H912L889 760Z" fill="#FFDC23"/>
<path d="M935 760L912 733H958L935 760Z" fill="#FFDC23"/>
<path d="M980.5 760L958 733H1003L980.5 760Z" fill="#FFDC23"/>
<path d="M1026 760L1003 733H1049L1026 760Z" fill="#FFDC23"/>
<path d="M1072 760L1049 733H1095L1072 760Z" fill="#FFDC23"/>
<path d="M1118 760L1095 733H1141L1118 760Z" fill="#FFDC23"/>
<path d="M1164 760L1141 733H1187L1164 760Z" fill="#FFDC23"/>
<path d="M1210 760L1187 733H1233L1210 760Z" fill="#FFDC23"/>
<path d="M1255.5 760L1233 733H1278L1255.5 760Z" fill="#FFDC23"/>
<path d="M1301 760L1278 733H1324L1301 760Z" fill="#FFDC23"/>
<path d="M1347 760L1324 733H1370L1347 760Z" fill="#FFDC23"/>
<path d="M1393 760L1370 733H1416L1393 760Z" fill="#FFDC23"/>
<path d="M1439 760L1416 733H1462L1439 760Z" fill="#FFDC23"/>
<path d="M1485 760L1462 733H1508L1485 760Z" fill="#FFDC23"/>
<path d="M1530.5 760L1508 733H1553L1530.5 760Z" fill="#FFDC23"/>
<path d="M1576 760L1553 733H1599L1576 760Z" fill="#FFDC23"/>
<path d="M1622 760L1599 733H1645L1622 760Z" fill="#FFDC23"/>
<path d="M1668 760L1645 733H1691L1668 760Z" fill="#FFDC23"/>
<path d="M1714 760L1691 733H1737L1714 760Z" fill="#FFDC23"/>
<path d="M1760 760L1737 733H1783L1760 760Z" fill="#FFDC23"/>
<path d="M1805.5 760L1783 733H1828L1805.5 760Z" fill="#FFDC23"/>
<path d="M1851 760L1828 733H1874L1851 760Z" fill="#FFDC23"/>
<path d="M1897 760L1874 733H1920L1897 760Z" fill="#FFDC23"/>
<path d="M0 734H1920V373H0V734Z" fill="#FFDC23"/>
</svg>
