<svg width="40" height="31" viewBox="0 0 40 31" fill="none" xmlns="http://www.w3.org/2000/svg">
<path d="M7.26562 30.8441V28.7878C7.26562 28.0089 6.78125 27.4948 5.96875 27.4948C5.5625 27.4948 5.10938 27.635 4.79688 28.0712C4.5625 27.6973 4.21875 27.4948 3.70313 27.4948C3.35938 27.4948 3.01563 27.6039 2.75 27.9777V27.5727H2.03125V30.8441H2.75V29.037C2.75 28.4606 3.0625 28.1802 3.53125 28.1802C4 28.1802 4.25 28.4918 4.25 29.037V30.8441H4.96875V29.037C4.96875 28.4606 5.3125 28.1802 5.75 28.1802C6.23438 28.1802 6.46875 28.4918 6.46875 29.037V30.8441H7.26562ZM17.9375 27.5571H16.7656V26.5601H16.0469V27.5571H15.3906V28.2114H16.0469V29.7225C16.0469 30.4702 16.3594 30.9219 17.1719 30.9219C17.4844 30.9219 17.8281 30.8129 18.0625 30.6883L17.8594 30.0652C17.6563 30.2054 17.4063 30.2365 17.2344 30.2365C16.8906 30.2365 16.75 30.034 16.75 29.6913V28.227H17.9219V27.5571H17.9375ZM24.0469 27.4948C23.6406 27.4948 23.3594 27.6973 23.1875 27.9777V27.5727H22.4688V30.8441H23.1875V28.9903C23.1875 28.4451 23.4219 28.1335 23.875 28.1335C24.0156 28.1335 24.1875 28.1647 24.3281 28.1958L24.5312 27.5104C24.3906 27.4948 24.1875 27.4948 24.0469 27.4948ZM14.8125 27.8375C14.4688 27.6039 13.9844 27.4948 13.4688 27.4948C12.6406 27.4948 12.0938 27.8998 12.0938 28.5541C12.0938 29.0993 12.5 29.4109 13.2188 29.5044L13.5625 29.5355C13.9375 29.5978 14.1406 29.7069 14.1406 29.8782C14.1406 30.1119 13.8594 30.2833 13.3906 30.2833C12.9219 30.2833 12.5312 30.1119 12.2969 29.9405L11.9531 30.4858C12.3281 30.7662 12.8438 30.8908 13.3594 30.8908C14.3125 30.8908 14.875 30.439 14.875 29.8315C14.875 29.2551 14.4219 28.9436 13.75 28.8345L13.4062 28.8034C13.0938 28.7722 12.8594 28.6943 12.8594 28.4918C12.8594 28.2581 13.0938 28.1179 13.4844 28.1179C13.8906 28.1179 14.3125 28.2893 14.5156 28.3983L14.8125 27.8375ZM33.9531 27.4948C33.5469 27.4948 33.2656 27.6973 33.0938 27.9777V27.5727H32.375V30.8441H33.0938V28.9903C33.0938 28.4451 33.3281 28.1335 33.7812 28.1335C33.9219 28.1335 34.0938 28.1647 34.2344 28.1958L34.4375 27.5104C34.2969 27.4948 34.0938 27.4948 33.9531 27.4948ZM24.7656 29.2084C24.7656 30.2054 25.4531 30.9219 26.5156 30.9219C27 30.9219 27.3438 30.8129 27.6875 30.5481L27.3438 29.9717C27.0625 30.1742 26.7969 30.2833 26.4844 30.2833C25.9062 30.2833 25.4844 29.8782 25.4844 29.224C25.4844 28.6008 25.8906 28.1958 26.4844 28.1647C26.7969 28.1647 27.0625 28.2737 27.3438 28.4762L27.6875 27.8998C27.3438 27.6194 27 27.526 26.5156 27.526C25.4531 27.4948 24.7656 28.2114 24.7656 29.2084ZM31.4219 29.2084V27.5727H30.7031V27.9777C30.4688 27.6662 30.125 27.4948 29.6719 27.4948C28.75 27.4948 28.0312 28.2114 28.0312 29.2084C28.0312 30.2054 28.75 30.9219 29.6719 30.9219C30.1562 30.9219 30.5 30.7506 30.7031 30.439V30.8441H31.4219V29.2084ZM28.7812 29.2084C28.7812 28.632 29.1562 28.1491 29.7812 28.1491C30.3594 28.1491 30.7812 28.6008 30.7812 29.2084C30.7812 29.7848 30.375 30.2677 29.7812 30.2677C29.1562 30.2365 28.7812 29.7848 28.7812 29.2084ZM20.1719 27.4948C19.2188 27.4948 18.5312 28.1802 18.5312 29.2084C18.5312 30.2365 19.2187 30.9219 20.2188 30.9219C20.7031 30.9219 21.1719 30.7817 21.5625 30.4702L21.2188 29.9561C20.9375 30.1586 20.5938 30.2988 20.2656 30.2988C19.8125 30.2988 19.375 30.0963 19.2656 29.5199H21.7031V29.2395C21.7188 28.1802 21.0938 27.4948 20.1719 27.4948ZM20.1719 28.1023C20.625 28.1023 20.9219 28.3828 21 28.8812H19.2812C19.3438 28.4451 19.6563 28.1023 20.1719 28.1023ZM38.0469 29.2084V26.2642H37.3281V27.9777C37.0938 27.6662 36.75 27.4948 36.2969 27.4948C35.375 27.4948 34.6562 28.2114 34.6562 29.2084C34.6562 30.2054 35.375 30.9219 36.2969 30.9219C36.7812 30.9219 37.125 30.7506 37.3281 30.439V30.8441H38.0469V29.2084ZM35.3906 29.2084C35.3906 28.632 35.7656 28.1491 36.3906 28.1491C36.9688 28.1491 37.3906 28.6008 37.3906 29.2084C37.3906 29.7848 36.9844 30.2677 36.3906 30.2677C35.7812 30.2365 35.3906 29.7848 35.3906 29.2084ZM11.3125 29.2084V27.5727H10.5938V27.9777C10.3594 27.6662 10.0156 27.4948 9.5625 27.4948C8.64062 27.4948 7.92188 28.2114 7.92188 29.2084C7.92188 30.2054 8.64062 30.9219 9.5625 30.9219C10.0469 30.9219 10.3906 30.7506 10.5938 30.439V30.8441H11.3125V29.2084ZM8.64062 29.2084C8.64062 28.632 9.01562 28.1491 9.64062 28.1491C10.2188 28.1491 10.6406 28.6008 10.6406 29.2084C10.6406 29.7848 10.2344 30.2677 9.64062 30.2677C9.01562 30.2365 8.64062 29.7848 8.64062 29.2084Z" fill="black"/>
<path d="M25.3906 2.63281H14.5781V21.9961H25.3906V2.63281Z" fill="#FF5F00"/>
<path d="M15.2656 12.3065C15.2656 8.38091 17.125 4.89146 19.9688 2.63266C17.875 0.996985 15.2344 0 12.3438 0C5.51562 0 0 5.49899 0 12.3065C0 19.1141 5.51562 24.6131 12.3438 24.6131C15.2188 24.6131 17.8594 23.6161 19.9531 21.9804C17.1094 19.7683 15.2656 16.2477 15.2656 12.3065Z" fill="#EB001B"/>
<path d="M39.9531 12.3065C39.9531 19.1141 34.4375 24.6131 27.6094 24.6131C24.7344 24.6131 22.0938 23.6161 20 21.9804C22.875 19.7216 24.7031 16.2322 24.7031 12.3065C24.7031 8.38091 22.8438 4.89146 20 2.63266C22.0938 0.996985 24.7344 0 27.6094 0C34.4375 0 39.9531 5.54573 39.9531 12.3065Z" fill="#F79E1B"/>
</svg>
