<svg width="1920" height="319" viewBox="0 0 1920 319" fill="none" xmlns="http://www.w3.org/2000/svg">
<path d="M23 0L0 27H46L23 0Z" fill="#EC3354"/>
<path d="M69 0L46 27H92L69 0Z" fill="#EC3354"/>
<path d="M114.5 0L92 27H137L114.5 0Z" fill="#EC3354"/>
<path d="M160 0L137 27H183L160 0Z" fill="#EC3354"/>
<path d="M206 0L183 27H229L206 0Z" fill="#EC3354"/>
<path d="M252 0L229 27H275L252 0Z" fill="#EC3354"/>
<path d="M298 0L275 27H321L298 0Z" fill="#EC3354"/>
<path d="M344 0L321 27H367L344 0Z" fill="#EC3354"/>
<path d="M389.5 0L367 27H412L389.5 0Z" fill="#EC3354"/>
<path d="M435 0L412 27H458L435 0Z" fill="#EC3354"/>
<path d="M481 0L458 27H504L481 0Z" fill="#EC3354"/>
<path d="M527 0L504 27H550L527 0Z" fill="#EC3354"/>
<path d="M573 0L550 27H596L573 0Z" fill="#EC3354"/>
<path d="M619 0L596 27H642L619 0Z" fill="#EC3354"/>
<path d="M664.5 0L642 27H687L664.5 0Z" fill="#EC3354"/>
<path d="M710 0L687 27H733L710 0Z" fill="#EC3354"/>
<path d="M756 0L733 27H779L756 0Z" fill="#EC3354"/>
<path d="M802 0L779 27H825L802 0Z" fill="#EC3354"/>
<path d="M843 0L820 27H866L843 0Z" fill="#EC3354"/>
<path d="M889 0L866 27H912L889 0Z" fill="#EC3354"/>
<path d="M935 0L912 27H958L935 0Z" fill="#EC3354"/>
<path d="M980.5 0L958 27H1003L980.5 0Z" fill="#EC3354"/>
<path d="M1026 0L1003 27H1049L1026 0Z" fill="#EC3354"/>
<path d="M1072 0L1049 27H1095L1072 0Z" fill="#EC3354"/>
<path d="M1118 0L1095 27H1141L1118 0Z" fill="#EC3354"/>
<path d="M1164 0L1141 27H1187L1164 0Z" fill="#EC3354"/>
<path d="M1210 0L1187 27H1233L1210 0Z" fill="#EC3354"/>
<path d="M1255.5 0L1233 27H1278L1255.5 0Z" fill="#EC3354"/>
<path d="M1301 0L1278 27H1324L1301 0Z" fill="#EC3354"/>
<path d="M1347 0L1324 27H1370L1347 0Z" fill="#EC3354"/>
<path d="M1393 0L1370 27H1416L1393 0Z" fill="#EC3354"/>
<path d="M1439 0L1416 27H1462L1439 0Z" fill="#EC3354"/>
<path d="M1485 0L1462 27H1508L1485 0Z" fill="#EC3354"/>
<path d="M1530.5 0L1508 27H1553L1530.5 0Z" fill="#EC3354"/>
<path d="M1576 0L1553 27H1599L1576 0Z" fill="#EC3354"/>
<path d="M1622 0L1599 27H1645L1622 0Z" fill="#EC3354"/>
<path d="M1668 0L1645 27H1691L1668 0Z" fill="#EC3354"/>
<path d="M1714 0L1691 27H1737L1714 0Z" fill="#EC3354"/>
<path d="M1760 0L1737 27H1783L1760 0Z" fill="#EC3354"/>
<path d="M1805.5 0L1783 27H1828L1805.5 0Z" fill="#EC3354"/>
<path d="M1851 0L1828 27H1874L1851 0Z" fill="#EC3354"/>
<path d="M1897 0L1874 27H1920L1897 0Z" fill="#EC3354"/>
<path d="M0 26H1920V318.5H0L0 26Z" fill="#EC3354"/>
</svg>
