<svg width="35" height="35" viewBox="0 0 35 35" fill="none" xmlns="http://www.w3.org/2000/svg">
<path d="M31.0526 17.6784L27.2447 11.7982C26.9496 11.3425 26.4492 11.0703 25.9063 11.0703H9.10578C8.56362 11.0703 8.06371 11.3418 7.76846 11.7964L3.94882 17.6773C3.55848 18.2782 3.61878 19.0716 4.09545 19.6065L16.3087 33.3181C16.611 33.6574 17.0449 33.8521 17.4994 33.8521C17.4994 33.8521 17.4994 33.8521 17.4994 33.8521C17.9538 33.8521 18.3879 33.6575 18.6902 33.3181L30.9048 19.6058C31.3808 19.0714 31.4415 18.2789 31.0526 17.6784ZM25.1349 12.4374L21.9325 17.3894L18.7283 12.4374H25.1349ZM20.6762 17.9644H14.3226L17.4994 13.0549L20.6762 17.9644ZM16.2705 12.4376L13.075 17.3759L9.88063 12.4376H16.2705ZM8.6166 13.0005L11.8274 17.9644H5.39257L8.6166 13.0005ZM5.68132 19.3316H12.5613L16.1992 31.1397L5.68132 19.3316ZM17.4994 30.7164L13.9919 19.3316H21.0068L17.4994 30.7164ZM18.7995 31.1401L22.4374 19.3317H29.3181L18.7995 31.1401ZM23.1889 17.9644L26.3968 13.0039L29.6089 17.9644H23.1889Z" fill="white"/>
<path d="M2.07354 17.9644H0.683594C0.306113 17.9644 0 18.2704 0 18.6479C0 19.0255 0.306113 19.3315 0.683594 19.3315H2.07354C2.45103 19.3315 2.75714 19.0255 2.75714 18.6479C2.75714 18.2704 2.45103 17.9644 2.07354 17.9644Z" fill="white"/>
<path d="M34.3165 17.9644H32.9265C32.549 17.9644 32.2429 18.2704 32.2429 18.6479C32.2429 19.0255 32.549 19.3315 32.9265 19.3315H34.3165C34.6939 19.3315 35.0001 19.0255 35.0001 18.6479C35.0001 18.2704 34.6939 17.9644 34.3165 17.9644Z" fill="white"/>
<path d="M29.883 6.27711C29.616 6.01017 29.1833 6.01017 28.9162 6.27711L26.6455 8.54781C26.3786 8.81475 26.3786 9.2476 26.6455 9.51454C26.7791 9.64805 26.954 9.71477 27.129 9.71477C27.304 9.71477 27.4788 9.64798 27.6123 9.51454L29.883 7.24385C30.15 6.97691 30.15 6.54412 29.883 6.27711Z" fill="white"/>
<path d="M8.38393 8.53567L6.1133 6.2649C5.84643 5.99796 5.41371 5.99796 5.1465 6.2649C4.87955 6.53185 4.87955 6.9647 5.1465 7.23164L7.41719 9.50234C7.55069 9.63584 7.72563 9.70256 7.90056 9.70256C8.07549 9.70256 8.25042 9.63577 8.38393 9.50234C8.65087 9.23546 8.65087 8.80254 8.38393 8.53567Z" fill="white"/>
<path d="M17.5173 1.14795C17.1399 1.14795 16.8337 1.45399 16.8337 1.83154V6.28639C16.8337 6.66394 17.1398 6.96998 17.5173 6.96998C17.8948 6.96998 18.2009 6.66394 18.2009 6.28639V1.83154C18.2009 1.45406 17.8948 1.14795 17.5173 1.14795Z" fill="white"/>
<path d="M18.0003 8.11558C17.8732 7.98843 17.6969 7.91528 17.5171 7.91528C17.3373 7.91528 17.1609 7.98843 17.0338 8.11558C16.9066 8.24272 16.8335 8.41909 16.8335 8.59888C16.8335 8.77935 16.9066 8.95503 17.0338 9.08218C17.1609 9.21001 17.3373 9.28247 17.5171 9.28247C17.6969 9.28247 17.8732 9.21001 18.0003 9.08218C18.1282 8.95503 18.2007 8.77866 18.2007 8.59888C18.2007 8.41909 18.1282 8.24279 18.0003 8.11558Z" fill="white"/>
</svg>
