<svg width="44" height="28" viewBox="0 0 44 28" fill="none" xmlns="http://www.w3.org/2000/svg">
<path d="M0 0H5.50309V27.8413H0V0ZM8.25052 0H10.9979V17.8174H8.25052V0ZM13.7536 0H16.501V17.8174H13.7536V0ZM22.0041 0H24.7515V17.8174H22.0041V0ZM33.0021 0H35.7495V17.8174H33.0021V0ZM41.2526 0H44V27.8413H41.2526V0ZM27.499 0H28.8768V17.8174H27.499V0ZM19.2485 0H20.6263V17.8174H19.2485V0ZM37.1273 0H38.5052V17.8174H37.1273V0Z" fill="black"/>
<path d="M9.73 27V19.77H12.225C12.6983 19.77 13.1017 19.815 13.435 19.905C13.7717 19.995 14.0467 20.1233 14.26 20.29C14.4767 20.4567 14.635 20.6583 14.735 20.895C14.835 21.1317 14.885 21.3983 14.885 21.695C14.885 21.865 14.86 22.0283 14.81 22.185C14.76 22.3383 14.6817 22.4833 14.575 22.62C14.4717 22.7533 14.3383 22.875 14.175 22.985C14.015 23.095 13.8233 23.1883 13.6 23.265C14.5933 23.4883 15.09 24.025 15.09 24.875C15.09 25.1817 15.0317 25.465 14.915 25.725C14.7983 25.985 14.6283 26.21 14.405 26.4C14.1817 26.5867 13.9067 26.7333 13.58 26.84C13.2533 26.9467 12.88 27 12.46 27H9.73ZM11.075 23.83V25.95H12.44C12.69 25.95 12.8983 25.92 13.065 25.86C13.235 25.8 13.37 25.72 13.47 25.62C13.5733 25.52 13.6467 25.4033 13.69 25.27C13.7367 25.1367 13.76 24.995 13.76 24.845C13.76 24.6883 13.735 24.5483 13.685 24.425C13.635 24.2983 13.5567 24.1917 13.45 24.105C13.3433 24.015 13.2067 23.9467 13.04 23.9C12.8733 23.8533 12.6717 23.83 12.435 23.83H11.075ZM11.075 22.9H12.15C12.6067 22.9 12.9533 22.8167 13.19 22.65C13.4267 22.4833 13.545 22.2183 13.545 21.855C13.545 21.4783 13.4383 21.21 13.225 21.05C13.0117 20.89 12.6783 20.81 12.225 20.81H11.075V22.9ZM18.3637 21.79C18.747 21.79 19.0937 21.8517 19.4037 21.975C19.717 22.0983 19.9837 22.2733 20.2037 22.5C20.4237 22.7267 20.5937 23.0033 20.7137 23.33C20.8337 23.6567 20.8937 24.0217 20.8937 24.425C20.8937 24.8317 20.8337 25.1983 20.7137 25.525C20.5937 25.8517 20.4237 26.13 20.2037 26.36C19.9837 26.59 19.717 26.7667 19.4037 26.89C19.0937 27.0133 18.747 27.075 18.3637 27.075C17.9803 27.075 17.632 27.0133 17.3187 26.89C17.0053 26.7667 16.737 26.59 16.5137 26.36C16.2937 26.13 16.122 25.8517 15.9987 25.525C15.8787 25.1983 15.8187 24.8317 15.8187 24.425C15.8187 24.0217 15.8787 23.6567 15.9987 23.33C16.122 23.0033 16.2937 22.7267 16.5137 22.5C16.737 22.2733 17.0053 22.0983 17.3187 21.975C17.632 21.8517 17.9803 21.79 18.3637 21.79ZM18.3637 26.125C18.7903 26.125 19.1053 25.9817 19.3087 25.695C19.5153 25.4083 19.6187 24.9883 19.6187 24.435C19.6187 23.8817 19.5153 23.46 19.3087 23.17C19.1053 22.88 18.7903 22.735 18.3637 22.735C17.9303 22.735 17.6103 22.8817 17.4037 23.175C17.197 23.465 17.0937 23.885 17.0937 24.435C17.0937 24.985 17.197 25.405 17.4037 25.695C17.6103 25.9817 17.9303 26.125 18.3637 26.125ZM23.1723 19.57V27H21.9373V19.57H23.1723ZM26.6921 21.79C27.0154 21.79 27.3121 21.8417 27.5821 21.945C27.8554 22.0483 28.0904 22.2 28.2871 22.4C28.4838 22.5967 28.6371 22.84 28.7471 23.13C28.8571 23.4167 28.9121 23.745 28.9121 24.115C28.9121 24.2083 28.9071 24.2867 28.8971 24.35C28.8904 24.41 28.8754 24.4583 28.8521 24.495C28.8321 24.5283 28.8038 24.5533 28.7671 24.57C28.7304 24.5833 28.6838 24.59 28.6271 24.59H25.4571C25.4938 25.1167 25.6354 25.5033 25.8821 25.75C26.1288 25.9967 26.4554 26.12 26.8621 26.12C27.0621 26.12 27.2338 26.0967 27.3771 26.05C27.5238 26.0033 27.6504 25.9517 27.7571 25.895C27.8671 25.8383 27.9621 25.7867 28.0421 25.74C28.1254 25.6933 28.2054 25.67 28.2821 25.67C28.3321 25.67 28.3754 25.68 28.4121 25.7C28.4488 25.72 28.4804 25.7483 28.5071 25.785L28.8671 26.235C28.7304 26.395 28.5771 26.53 28.4071 26.64C28.2371 26.7467 28.0588 26.8333 27.8721 26.9C27.6888 26.9633 27.5004 27.0083 27.3071 27.035C27.1171 27.0617 26.9321 27.075 26.7521 27.075C26.3954 27.075 26.0638 27.0167 25.7571 26.9C25.4504 26.78 25.1838 26.605 24.9571 26.375C24.7304 26.1417 24.5521 25.855 24.4221 25.515C24.2921 25.1717 24.2271 24.775 24.2271 24.325C24.2271 23.975 24.2838 23.6467 24.3971 23.34C24.5104 23.03 24.6721 22.7617 24.8821 22.535C25.0954 22.305 25.3538 22.1233 25.6571 21.99C25.9638 21.8567 26.3088 21.79 26.6921 21.79ZM26.7171 22.675C26.3571 22.675 26.0754 22.7767 25.8721 22.98C25.6688 23.1833 25.5388 23.4717 25.4821 23.845H27.8021C27.8021 23.685 27.7804 23.535 27.7371 23.395C27.6938 23.2517 27.6271 23.1267 27.5371 23.02C27.4471 22.9133 27.3338 22.83 27.1971 22.77C27.0604 22.7067 26.9004 22.675 26.7171 22.675ZM31.5989 27.08C31.1556 27.08 30.8139 26.955 30.5739 26.705C30.3339 26.4517 30.2139 26.1033 30.2139 25.66V22.795H29.6939C29.6272 22.795 29.5689 22.7733 29.5189 22.73C29.4722 22.6867 29.4489 22.6217 29.4489 22.535V22.045L30.2739 21.91L30.5339 20.51C30.5472 20.4433 30.5772 20.3917 30.6239 20.355C30.6739 20.3183 30.7356 20.3 30.8089 20.3H31.4489V21.915H32.7989V22.795H31.4489V25.575C31.4489 25.735 31.4889 25.86 31.5689 25.95C31.6489 26.04 31.7556 26.085 31.8889 26.085C31.9656 26.085 32.0289 26.0767 32.0789 26.06C32.1322 26.04 32.1772 26.02 32.2139 26C32.2539 25.98 32.2889 25.9617 32.3189 25.945C32.3489 25.925 32.3789 25.915 32.4089 25.915C32.4456 25.915 32.4756 25.925 32.4989 25.945C32.5222 25.9617 32.5472 25.9883 32.5739 26.025L32.9439 26.625C32.7639 26.775 32.5572 26.8883 32.3239 26.965C32.0906 27.0417 31.8489 27.08 31.5989 27.08ZM35.9711 21.79C36.3544 21.79 36.7011 21.8517 37.0111 21.975C37.3244 22.0983 37.5911 22.2733 37.8111 22.5C38.0311 22.7267 38.2011 23.0033 38.3211 23.33C38.4411 23.6567 38.5011 24.0217 38.5011 24.425C38.5011 24.8317 38.4411 25.1983 38.3211 25.525C38.2011 25.8517 38.0311 26.13 37.8111 26.36C37.5911 26.59 37.3244 26.7667 37.0111 26.89C36.7011 27.0133 36.3544 27.075 35.9711 27.075C35.5878 27.075 35.2394 27.0133 34.9261 26.89C34.6128 26.7667 34.3444 26.59 34.1211 26.36C33.9011 26.13 33.7294 25.8517 33.6061 25.525C33.4861 25.1983 33.4261 24.8317 33.4261 24.425C33.4261 24.0217 33.4861 23.6567 33.6061 23.33C33.7294 23.0033 33.9011 22.7267 34.1211 22.5C34.3444 22.2733 34.6128 22.0983 34.9261 21.975C35.2394 21.8517 35.5878 21.79 35.9711 21.79ZM35.9711 26.125C36.3978 26.125 36.7128 25.9817 36.9161 25.695C37.1228 25.4083 37.2261 24.9883 37.2261 24.435C37.2261 23.8817 37.1228 23.46 36.9161 23.17C36.7128 22.88 36.3978 22.735 35.9711 22.735C35.5378 22.735 35.2178 22.8817 35.0111 23.175C34.8044 23.465 34.7011 23.885 34.7011 24.435C34.7011 24.985 34.8044 25.405 35.0111 25.695C35.2178 25.9817 35.5378 26.125 35.9711 26.125Z" fill="black"/>
</svg>
