<svg width="17" height="17" viewBox="0 0 17 17" fill="none" xmlns="http://www.w3.org/2000/svg">
<g clip-path="url(#clip0)">
<path d="M7.68819 8.44292L0.163563 15.9675C-0.0454844 16.1766 -0.0454844 16.5153 0.163563 16.7243C0.267953 16.829 0.405016 16.881 0.541813 16.881C0.678875 16.881 0.815672 16.829 0.920063 16.7243L8.50127 9.14311L16.0825 16.7243C16.1871 16.829 16.3239 16.881 16.4607 16.881C16.5975 16.881 16.7346 16.829 16.839 16.7243C17.048 16.5153 17.048 16.1766 16.839 15.9675L9.31461 8.44292L16.844 0.912985C17.0531 0.703938 17.0531 0.365267 16.844 0.15622C16.635 -0.0525615 16.2963 -0.0525615 16.0875 0.15622L8.50153 7.74274L0.91475 0.156485C0.705703 -0.0522959 0.367297 -0.0522959 0.15825 0.156485C-0.0507969 0.365532 -0.0507969 0.704204 0.15825 0.913251L7.68819 8.44292Z" fill="white"/>
</g>
<defs>
<clipPath id="clip0">
<rect width="17" height="17" fill="white"/>
</clipPath>
</defs>
</svg>
