<svg width="29" height="29" viewBox="0 0 29 29" fill="none" xmlns="http://www.w3.org/2000/svg">
<g clip-path="url(#clip0)">
<path d="M28.2302 9.95306L19.0473 0.770257C18.5516 0.274595 17.8905 0.00158691 17.1858 0.00158691C16.4811 0.00158691 15.82 0.274481 15.3243 0.770143L0.76867 15.3258C0.273008 15.8215 0 16.4825 0 17.1873C0 17.892 0.273008 18.5531 0.76867 19.0487L1.90103 20.1811C1.90114 20.1811 1.9012 20.1812 1.90131 20.1813C1.90143 20.1814 1.90154 20.1816 1.90165 20.1817L9.51189 27.7919H8.45814C8.12453 27.7919 7.85402 28.0624 7.85402 28.396C7.85402 28.7297 8.12453 29.0002 8.45814 29.0002H11.8106C11.8114 29.0002 11.8122 29.0002 11.813 29.0002C11.8138 29.0002 11.8145 29.0002 11.8153 29.0002L20.5409 29.0003C20.8746 29.0003 21.1451 28.7298 21.1451 28.3962C21.1451 28.0625 20.8746 27.792 20.5409 27.792L14.1143 27.7919L28.2303 13.6759C29.2566 12.6495 29.2566 10.9794 28.2302 9.95306ZM27.3758 12.8216L12.8201 27.3773C12.5531 27.6442 12.1963 27.7913 11.8152 27.7919H11.8106C11.4296 27.7913 11.0728 27.6442 10.806 27.3773L3.18292 19.7542L17.1615 5.77542C17.3975 5.53951 17.3975 5.15696 17.1615 4.92105C16.9256 4.68514 16.5431 4.68514 16.3071 4.92111L2.3285 18.8998L1.62298 18.1943C1.35558 17.9269 1.20831 17.5693 1.20831 17.1873C1.20831 16.8053 1.35558 16.4476 1.62304 16.1802L16.1787 1.62457C16.4461 1.35717 16.8038 1.2099 17.1858 1.2099C17.5678 1.2099 17.9255 1.35717 18.1929 1.62462L21.4612 4.8929L7.48245 18.8718C7.24655 19.1077 7.24655 19.4902 7.48245 19.7262C7.60044 19.8442 7.75506 19.9031 7.90964 19.9031C8.06421 19.9031 8.21884 19.8441 8.33682 19.7262L22.3156 5.74732L27.3758 10.8074C27.9311 11.3627 27.931 12.2663 27.3758 12.8216Z" fill="white" stroke="white" stroke-width="0.2"/>
<path d="M14.8853 17.4489C14.6494 17.213 14.2669 17.213 14.0309 17.4489L9.27678 22.2029C9.04088 22.4388 9.04088 22.8213 9.27678 23.0573C9.39477 23.1753 9.5494 23.2343 9.70397 23.2343C9.85854 23.2343 10.0132 23.1752 10.1312 23.0573L14.8852 18.3033C15.1212 18.0673 15.1212 17.6848 14.8853 17.4489Z" fill="white" stroke="white" stroke-width="0.2"/>
<path d="M12.9354 21.9619L10.9855 23.9117C10.7496 24.1476 10.7496 24.5302 10.9855 24.7662C11.1035 24.8841 11.2581 24.9431 11.4127 24.9431C11.5674 24.9431 11.7219 24.8841 11.8399 24.7662L13.7897 22.8163C14.0257 22.5804 14.0257 22.1979 13.7897 21.9619C13.5538 21.7259 13.1715 21.7259 12.9354 21.9619Z" fill="white" stroke="white" stroke-width="0.2"/>
<path d="M14.7297 20.1677L14.4734 20.424C14.2374 20.6599 14.2374 21.0424 14.4733 21.2784C14.5912 21.3964 14.7459 21.4554 14.9005 21.4554C15.0551 21.4554 15.2097 21.3964 15.3276 21.2784L15.5839 21.0222C15.8199 20.7863 15.8199 20.4038 15.584 20.1678C15.3482 19.9319 14.9656 19.9318 14.7297 20.1677Z" fill="white" stroke="white" stroke-width="0.2"/>
<path d="M23.057 9.27729C22.9437 9.16401 22.79 9.10034 22.6298 9.10034C22.4696 9.10034 22.316 9.16401 22.2026 9.27729L19.6393 11.8405C19.5261 11.9538 19.4624 12.1074 19.4624 12.2677C19.4624 12.4279 19.5261 12.5816 19.6393 12.6949L21.3482 14.4035C21.4662 14.5215 21.6208 14.5805 21.7754 14.5805C21.9301 14.5805 22.0846 14.5215 22.2026 14.4035L24.7657 11.8404C25.0016 11.6045 25.0016 11.222 24.7657 10.9861L23.057 9.27729ZM21.7753 13.1221L20.9209 12.2677L22.6297 10.5589L23.4841 11.4133L21.7753 13.1221Z" fill="white" stroke="white" stroke-width="0.2"/>
<path d="M18.1442 4.54183C18.2989 4.54183 18.4535 4.48281 18.5714 4.36477L18.8277 4.10836C19.0636 3.8724 19.0635 3.48985 18.8275 3.25399C18.5916 3.01814 18.209 3.0182 17.9732 3.25416L17.7169 3.51058C17.481 3.74654 17.4811 4.12909 17.7171 4.36494C17.835 4.48293 17.9896 4.54183 18.1442 4.54183Z" fill="white" stroke="white" stroke-width="0.2"/>
<path d="M6.07263 20.2806L5.81634 20.5369C5.58043 20.7728 5.58043 21.1553 5.81634 21.3913C5.93432 21.5093 6.08895 21.5682 6.24352 21.5682C6.39809 21.5682 6.55272 21.5093 6.6707 21.3913L6.927 21.135C7.16291 20.8991 7.16291 20.5165 6.927 20.2806C6.69104 20.0446 6.3086 20.0446 6.07263 20.2806Z" fill="white" stroke="white" stroke-width="0.2"/>
</g>
<defs>
<clipPath id="clip0">
<rect width="29" height="29" fill="white"/>
</clipPath>
</defs>
</svg>
