<svg width="40" height="40" viewBox="0 0 40 40" fill="none" xmlns="http://www.w3.org/2000/svg">
<path d="M34.6098 0H5.39033C2.41353 0 0.000244141 2.41318 0.000244141 5.39008V34.6097C0.000244141 37.5866 2.41343 39.9998 5.39033 39.9998H19.8012L19.8258 25.706H16.1123C15.6297 25.706 15.238 25.3158 15.2361 24.8332L15.2183 20.2257C15.2165 19.7405 15.6093 19.3462 16.0946 19.3462H19.8013V14.8942C19.8013 9.72768 22.9567 6.91449 27.5655 6.91449H31.3475C31.8313 6.91449 32.2237 7.30677 32.2237 7.79074V11.6758C32.2237 12.1596 31.8316 12.5517 31.3479 12.552L29.027 12.5531C26.5206 12.5531 26.0353 13.7441 26.0353 15.492V19.3463H31.5428C32.0675 19.3463 32.4747 19.8045 32.4128 20.3256L31.8667 24.9331C31.8145 25.374 31.4406 25.7062 30.9967 25.7062H26.0598L26.0353 40H34.61C37.5868 40 40 37.5868 40 34.61V5.39008C39.9999 2.41318 37.5867 0 34.6098 0Z" fill="#475993"/>
</svg>
