<svg width="30" height="30" viewBox="0 0 30 30" fill="none" xmlns="http://www.w3.org/2000/svg">
<path d="M7.04004 15.8203C6.55055 15.8203 6.15234 16.2185 6.15234 16.708C6.15234 17.1975 6.55055 17.5957 7.04004 17.5957C7.52953 17.5957 7.91016 17.1974 7.91016 16.708C7.91016 16.2186 7.52947 15.8203 7.04004 15.8203Z" fill="white"/>
<path d="M15.0586 0C12.6354 0 10.6641 1.97139 10.6641 4.39453C10.6641 6.81768 12.6354 8.78906 15.0586 8.78906C17.4817 8.78906 19.4531 6.81768 19.4531 4.39453C19.4531 1.97139 17.4817 0 15.0586 0ZM15.0586 7.03125C13.6047 7.03125 12.4219 5.84842 12.4219 4.39453C12.4219 2.94064 13.6047 1.75781 15.0586 1.75781C16.5125 1.75781 17.6953 2.94064 17.6953 4.39453C17.6953 5.84842 16.5125 7.03125 15.0586 7.03125Z" fill="white"/>
<path d="M18.5742 12.3047H11.543C11.0576 12.3047 10.6641 12.6982 10.6641 13.1836C10.6641 13.669 11.0576 14.0625 11.543 14.0625H18.5742C19.0596 14.0625 19.4531 13.669 19.4531 13.1836C19.4531 12.6982 19.0596 12.3047 18.5742 12.3047Z" fill="white"/>
<path d="M28.9703 13.3345C28.6271 12.9911 28.0706 12.9911 27.7273 13.3344C27.3841 13.6777 27.3841 14.2341 27.7273 14.5774C28.0593 14.9094 28.2422 15.3508 28.2422 15.8203C28.2422 16.7896 27.4536 17.5781 26.4844 17.5781H26.444C25.9985 12.6576 21.8511 8.78906 16.8164 8.78906H15.0586H12.4219C11.8627 8.78906 11.2218 8.85246 10.602 8.9666C9.43787 7.73021 7.84465 7.03125 6.15234 7.03125C5.66695 7.03125 5.27344 7.42477 5.27344 7.91016V11.8663C4.22098 12.9888 3.451 14.3459 3.03164 15.8203H2.63672C1.18283 15.8203 0 17.0031 0 18.457V20.2734C0 21.7273 1.18283 22.9043 2.63672 22.9043C2.93795 22.9043 3.35783 22.9051 3.6917 22.9069C4.30365 24.1108 5.15613 25.1979 6.14848 26.0275C6.15229 27.1928 6.15234 29.0994 6.15234 29.1211C6.15234 29.6065 6.54586 30 7.03125 30H10.5469C11.0323 30 11.4258 29.6065 11.4258 29.1211V28.1966C11.7579 28.2262 12.0986 28.2422 12.4219 28.2422H16.8164V29.1211C16.8164 29.6065 17.2099 30 17.6953 30H21.2109C21.6963 30 22.0898 29.6065 22.0898 29.1211C22.0898 29.1083 22.0898 27.965 22.0928 26.6758C23.3379 25.8586 24.3904 24.7379 25.1561 23.4091C25.8776 22.1569 26.3156 20.7638 26.4438 19.336H26.4844C28.4229 19.336 30 17.7589 30 15.8204C30 14.8813 29.6343 13.9985 28.9703 13.3345ZM20.7746 25.4245C20.504 25.5813 20.3371 25.87 20.3362 26.1826C20.3341 26.9399 20.333 27.6896 20.3325 28.2422H18.5742C18.5742 27.4183 18.5742 27.9186 18.5742 25.6055C18.5742 25.1201 18.1807 24.7266 17.6953 24.7266C17.2099 24.7266 16.8164 25.1201 16.8164 25.6055V26.4844H12.4219C12.0961 26.4844 11.7517 26.4655 11.4258 26.4311V25.6055C11.4258 25.1201 11.0323 24.7266 10.5469 24.7266C10.0615 24.7266 9.66797 25.1201 9.66797 25.6055C9.66797 27.1587 9.66797 27.2524 9.66797 28.2422H7.9098C7.90928 27.4267 7.90799 26.2446 7.90459 25.5973C7.90312 25.3227 7.77346 25.0646 7.55408 24.8996C6.50514 24.1104 5.61803 22.9698 5.05617 21.6881C4.92152 21.3809 4.62387 21.1771 4.28883 21.1628C4.05609 21.1529 2.87174 21.1523 2.63672 21.1523C2.15209 21.1523 1.75781 20.7581 1.75781 20.2734V18.457C1.75781 17.9724 2.15209 17.5781 2.63672 17.5781H3.68918C3.69018 17.5781 3.69111 17.5783 3.69211 17.5783C3.69352 17.5783 3.69486 17.5781 3.69627 17.5781C4.16156 17.5781 4.48992 17.2828 4.58139 16.9072C4.61613 16.7645 4.68779 16.4706 4.70443 16.3655C5.06977 15.0379 5.78297 13.8233 6.7698 12.849C6.93709 12.6839 7.03125 12.4586 7.03125 12.2235V8.87947C8.02635 9.08701 8.92811 9.64436 9.58611 10.4776C9.79805 10.746 10.1464 10.8671 10.4791 10.788C11.124 10.6348 11.8321 10.5469 12.4219 10.5469H16.8164C21.1781 10.5469 24.7266 14.0954 24.7266 18.457C24.7266 21.2991 23.1753 24.034 20.7746 25.4245Z" fill="white"/>
</svg>
