<svg width="25" height="25" viewBox="0 0 25 25" fill="none" xmlns="http://www.w3.org/2000/svg">
<path d="M24.1699 22.7637L18.418 17.0117C19.8438 15.2734 20.7031 13.0469 20.7031 10.6201C20.7031 5.05371 16.1865 0.537109 10.6201 0.537109C5.04883 0.537109 0.537109 5.05371 0.537109 10.6201C0.537109 16.1865 5.04883 20.7031 10.6201 20.7031C13.0469 20.7031 15.2686 19.8486 17.0068 18.4229L22.7588 24.1699C23.1494 24.5605 23.7793 24.5605 24.1699 24.1699C24.5605 23.7842 24.5605 23.1494 24.1699 22.7637ZM10.6201 18.6963C6.16211 18.6963 2.53906 15.0732 2.53906 10.6201C2.53906 6.16699 6.16211 2.53906 10.6201 2.53906C15.0732 2.53906 18.7012 6.16699 18.7012 10.6201C18.7012 15.0732 15.0732 18.6963 10.6201 18.6963Z" fill="black"/>
</svg>
