<svg width="34" height="34" viewBox="0 0 34 34" fill="none" xmlns="http://www.w3.org/2000/svg">
<path d="M24.1372 0H9.86287C8.487 0 7.3667 1.1203 7.3667 2.49617V31.5033C7.3667 32.8797 8.487 34 9.86287 34H24.1366C25.5131 34 26.6334 32.8797 26.6334 31.5038V2.49617C26.6334 1.1203 25.5131 0 24.1372 0ZM8.50003 4.53333H25.5V26.0667H8.50003V4.53333ZM9.86287 1.13333H24.1366C24.8886 1.13333 25.5 1.74477 25.5 2.49617V3.4H8.50003V2.49617C8.50003 1.74477 9.11147 1.13333 9.86287 1.13333ZM24.1372 32.8667H9.86287C9.11147 32.8667 8.50003 32.2552 8.50003 31.5038V27.2H25.5V31.5038C25.5 32.2552 24.8886 32.8667 24.1372 32.8667Z" fill="black"/>
<path d="M17.0001 27.7667C15.75 27.7667 14.7334 28.7833 14.7334 30.0333C14.7334 31.2834 15.75 32.3 17.0001 32.3C18.2501 32.3 19.2667 31.2834 19.2667 30.0333C19.2667 28.7833 18.2501 27.7667 17.0001 27.7667ZM17.0001 31.1667C16.375 31.1667 15.8667 30.6584 15.8667 30.0333C15.8667 29.4083 16.375 28.9 17.0001 28.9C17.6251 28.9 18.1334 29.4083 18.1334 30.0333C18.1334 30.6584 17.6251 31.1667 17.0001 31.1667Z" fill="black"/>
<path d="M14.7334 2.83335H17.0001C17.3134 2.83335 17.5667 2.58005 17.5667 2.26668C17.5667 1.95331 17.3134 1.70001 17.0001 1.70001H14.7334C14.42 1.70001 14.1667 1.95331 14.1667 2.26668C14.1667 2.58005 14.42 2.83335 14.7334 2.83335Z" fill="black"/>
<path d="M18.7002 2.83335H19.2669C19.5802 2.83335 19.8335 2.58005 19.8335 2.26668C19.8335 1.95331 19.5802 1.70001 19.2669 1.70001H18.7002C18.3868 1.70001 18.1335 1.95331 18.1335 2.26668C18.1335 2.58005 18.3868 2.83335 18.7002 2.83335Z" fill="black"/>
<path d="M32.0802 2.58909C31.8587 2.36752 31.5005 2.36752 31.279 2.58909C31.0574 2.81065 31.0574 3.16879 31.279 3.39035C33.396 5.50742 33.396 8.95219 31.279 11.0698C31.0574 11.2914 31.0574 11.6495 31.279 11.8711C31.3895 11.9816 31.5345 12.0371 31.6796 12.0371C31.8247 12.0371 31.9697 11.9816 32.0802 11.8711C34.6393 9.31259 34.6393 5.14815 32.0802 2.58909Z" fill="black"/>
<path d="M29.694 3.87882C29.4724 3.65725 29.1143 3.65725 28.8927 3.87882C28.6712 4.10039 28.6712 4.45852 28.8927 4.68009C29.5937 5.38106 29.9796 6.31492 29.9796 7.30886C29.9796 8.30279 29.5937 9.23609 28.8927 9.93706C28.6712 10.1586 28.6712 10.5168 28.8927 10.7383C29.0032 10.8488 29.1483 10.9044 29.2934 10.9044C29.4384 10.9044 29.5835 10.8488 29.694 10.7383C30.6092 9.82372 31.1129 8.60539 31.1129 7.30886C31.1129 6.01232 30.6097 4.79342 29.694 3.87882Z" fill="black"/>
<path d="M2.7213 3.39035C2.94287 3.16879 2.94287 2.81065 2.7213 2.58909C2.49973 2.36752 2.1416 2.36752 1.92003 2.58909C-0.639034 5.14815 -0.639034 9.31202 1.92003 11.8711C2.03053 11.9816 2.1756 12.0371 2.32067 12.0371C2.46573 12.0371 2.6108 11.9816 2.7213 11.8711C2.94287 11.6495 2.94287 11.2914 2.7213 11.0698C0.603666 8.95275 0.603666 5.50799 2.7213 3.39035Z" fill="black"/>
<path d="M5.10741 3.72242C4.88584 3.50085 4.52771 3.50085 4.30614 3.72242C3.39097 4.63702 2.88721 5.85535 2.88721 7.15189C2.88721 8.44842 3.39097 9.66675 4.30614 10.5819C4.41664 10.6924 4.56171 10.748 4.70677 10.748C4.85184 10.748 4.99691 10.6924 5.10741 10.5819C5.32897 10.3604 5.32897 10.0022 5.10741 9.78065C4.40644 9.07969 4.02054 8.14582 4.02054 7.15189C4.02054 6.15795 4.40587 5.22465 5.10741 4.52369C5.32841 4.30269 5.32841 3.94399 5.10741 3.72242Z" fill="black"/>
</svg>
