<svg width="14" height="16" viewBox="0 0 14 16" fill="none" xmlns="http://www.w3.org/2000/svg">
<path d="M1.56325 4.76335V13.9953C1.56325 14.541 1.76334 15.0534 2.11287 15.4211C2.46079 15.7898 2.94498 15.9991 3.45171 16H10.5413C11.0481 15.9991 11.5323 15.7898 11.8801 15.4211C12.2296 15.0534 12.4297 14.541 12.4297 13.9953V4.76335C13.1245 4.57893 13.5748 3.90768 13.4818 3.19471C13.3887 2.48189 12.7815 1.94867 12.0625 1.94852H10.144V1.48014C10.1462 1.08626 9.99048 0.708039 9.71164 0.42979C9.43281 0.151688 9.054 -0.0031709 8.66012 4.92333e-05H5.33285C4.93897 -0.0031709 4.56017 0.151688 4.28133 0.42979C4.0025 0.708039 3.84676 1.08626 3.84896 1.48014V1.94852H1.93049C1.21152 1.94867 0.604236 2.48189 0.511145 3.19471C0.418201 3.90768 0.868434 4.57893 1.56325 4.76335ZM10.5413 15.2506H3.45171C2.81105 15.2506 2.31266 14.7002 2.31266 13.9953V4.79629H11.6803V13.9953C11.6803 14.7002 11.1819 15.2506 10.5413 15.2506ZM4.59837 1.48014C4.59588 1.28503 4.67258 1.09724 4.81104 0.959502C4.94936 0.821768 5.13759 0.746095 5.33285 0.749461H8.66012C8.85538 0.746095 9.04361 0.821768 9.18193 0.959502C9.3204 1.09709 9.3971 1.28503 9.39461 1.48014V1.94852H4.59837V1.48014ZM1.93049 2.69793H12.0625C12.435 2.69793 12.737 2.99989 12.737 3.3724C12.737 3.74491 12.435 4.04687 12.0625 4.04687H1.93049C1.55798 4.04687 1.25602 3.74491 1.25602 3.3724C1.25602 2.99989 1.55798 2.69793 1.93049 2.69793Z" fill="#626262"/>
</svg>
