<svg width="43" height="33" viewBox="0 0 43 33" fill="none" xmlns="http://www.w3.org/2000/svg">
<path d="M20.5549 16.29C20.0299 16.885 18.8049 17.795 18.8749 17.795C21.2199 18.32 25.8749 19.895 25.8749 21.855V29.555C25.7699 30.29 25.6299 30.36 24.9999 30.43H3.43991C2.80991 30.36 2.66991 30.29 2.56491 29.555V21.855C2.56491 19.93 7.28991 18.32 9.70491 17.83H9.73991C9.07491 17.41 8.44491 16.92 7.91991 16.36C5.36491 17.06 0.674912 18.775 0.709912 21.89V29.66V29.8C0.954912 31.41 1.72491 32.18 3.29991 32.32H25.1049H25.1399C26.7149 32.18 27.4849 31.41 27.7299 29.8V21.925C27.7649 18.705 23.0049 16.99 20.5549 16.29Z" fill="#103B48"/>
<path d="M14.2199 16.29C9.98493 16.29 6.55493 12.86 6.55493 8.62496C6.55493 4.38996 9.98493 0.959961 14.2199 0.959961C18.4549 0.959961 21.8849 4.38996 21.8849 8.62496C21.9199 12.86 18.4549 16.29 14.2199 16.29ZM14.2199 2.81496C10.9999 2.81496 8.40993 5.43996 8.40993 8.62496C8.40993 11.845 11.0349 14.435 14.2199 14.435C17.4399 14.435 20.0299 11.81 20.0299 8.62496C20.0649 5.40496 17.4399 2.81496 14.2199 2.81496Z" fill="#103B48"/>
<g clip-path="url(#clip0)">
<path d="M38.0545 20.8806L34.1847 17.0107C33.9384 16.7645 33.9384 16.3654 34.1847 16.1194C34.4308 15.8733 34.8299 15.8733 35.0759 16.1194L38.5001 19.5436L41.9241 16.1195C42.1702 15.8734 42.5693 15.8734 42.8154 16.1195C43.0615 16.3655 43.0615 16.7646 42.8154 17.0108L38.9456 20.8807C38.8225 21.0037 38.6613 21.0652 38.5001 21.0652C38.3388 21.0652 38.1775 21.0036 38.0545 20.8806Z" fill="#103B48"/>
</g>
<defs>
<clipPath id="clip0">
<rect width="9" height="9" fill="white" transform="translate(43 14) rotate(90)"/>
</clipPath>
</defs>
</svg>
