<svg width="1920" height="387" viewBox="0 0 1920 387" fill="none" xmlns="http://www.w3.org/2000/svg">
<path d="M23 387L0 360H46L23 387Z" fill="#FFDC23"/>
<path d="M69 387L46 360H92L69 387Z" fill="#FFDC23"/>
<path d="M114.5 387L92 360H137L114.5 387Z" fill="#FFDC23"/>
<path d="M160 387L137 360H183L160 387Z" fill="#FFDC23"/>
<path d="M206 387L183 360H229L206 387Z" fill="#FFDC23"/>
<path d="M252 387L229 360H275L252 387Z" fill="#FFDC23"/>
<path d="M298 387L275 360H321L298 387Z" fill="#FFDC23"/>
<path d="M344 387L321 360H367L344 387Z" fill="#FFDC23"/>
<path d="M389.5 387L367 360H412L389.5 387Z" fill="#FFDC23"/>
<path d="M435 387L412 360H458L435 387Z" fill="#FFDC23"/>
<path d="M481 387L458 360H504L481 387Z" fill="#FFDC23"/>
<path d="M527 387L504 360H550L527 387Z" fill="#FFDC23"/>
<path d="M573 387L550 360H596L573 387Z" fill="#FFDC23"/>
<path d="M619 387L596 360H642L619 387Z" fill="#FFDC23"/>
<path d="M664.5 387L642 360H687L664.5 387Z" fill="#FFDC23"/>
<path d="M710 387L687 360H733L710 387Z" fill="#FFDC23"/>
<path d="M756 387L733 360H779L756 387Z" fill="#FFDC23"/>
<path d="M802 387L779 360H825L802 387Z" fill="#FFDC23"/>
<path d="M843 387L820 360H866L843 387Z" fill="#FFDC23"/>
<path d="M889 387L866 360H912L889 387Z" fill="#FFDC23"/>
<path d="M935 387L912 360H958L935 387Z" fill="#FFDC23"/>
<path d="M980.5 387L958 360H1003L980.5 387Z" fill="#FFDC23"/>
<path d="M1026 387L1003 360H1049L1026 387Z" fill="#FFDC23"/>
<path d="M1072 387L1049 360H1095L1072 387Z" fill="#FFDC23"/>
<path d="M1118 387L1095 360H1141L1118 387Z" fill="#FFDC23"/>
<path d="M1164 387L1141 360H1187L1164 387Z" fill="#FFDC23"/>
<path d="M1210 387L1187 360H1233L1210 387Z" fill="#FFDC23"/>
<path d="M1255.5 387L1233 360H1278L1255.5 387Z" fill="#FFDC23"/>
<path d="M1301 387L1278 360H1324L1301 387Z" fill="#FFDC23"/>
<path d="M1347 387L1324 360H1370L1347 387Z" fill="#FFDC23"/>
<path d="M1393 387L1370 360H1416L1393 387Z" fill="#FFDC23"/>
<path d="M1439 387L1416 360H1462L1439 387Z" fill="#FFDC23"/>
<path d="M1485 387L1462 360H1508L1485 387Z" fill="#FFDC23"/>
<path d="M1530.5 387L1508 360H1553L1530.5 387Z" fill="#FFDC23"/>
<path d="M1576 387L1553 360H1599L1576 387Z" fill="#FFDC23"/>
<path d="M1622 387L1599 360H1645L1622 387Z" fill="#FFDC23"/>
<path d="M1668 387L1645 360H1691L1668 387Z" fill="#FFDC23"/>
<path d="M1714 387L1691 360H1737L1714 387Z" fill="#FFDC23"/>
<path d="M1760 387L1737 360H1783L1760 387Z" fill="#FFDC23"/>
<path d="M1805.5 387L1783 360H1828L1805.5 387Z" fill="#FFDC23"/>
<path d="M1851 387L1828 360H1874L1851 387Z" fill="#FFDC23"/>
<path d="M1897 387L1874 360H1920L1897 387Z" fill="#FFDC23"/>
<path d="M0 361H1920V0H0V361Z" fill="#FFDC23"/>
</svg>
