<svg xmlns="http://www.w3.org/2000/svg" xmlns:xlink="http://www.w3.org/1999/xlink" width="135" height="90" viewBox="0 0 135 90">
  <defs>
    <clipPath id="clip-path">
      <rect id="Retângulo_25" data-name="Retângulo 25" width="135" height="90" fill="#fff" stroke="#707070" stroke-width="1"/>
    </clipPath>
  </defs>
  <g id="Grupo_de_máscara_16" data-name="Grupo de máscara 16" transform="translate(0)" clip-path="url(#clip-path)">
    <g id="_001-sketch" data-name="001-sketch" transform="translate(22.355 0)">
      <g id="Agrupar_49" data-name="Agrupar 49" transform="translate(63.576 63.472)">
        <g id="Agrupar_48" data-name="Agrupar 48">
          <path id="Caminho_30" data-name="Caminho 30" d="M79.891,63.718a1.325,1.325,0,0,0-1.444.287L63.964,78.488A1.325,1.325,0,0,0,64.9,80.75H79.384a1.325,1.325,0,0,0,1.325-1.325V64.942A1.326,1.326,0,0,0,79.891,63.718ZM68.1,78.1l9.958-9.958V78.1Z" transform="translate(-63.576 -63.617)" fill="#fff"/>
        </g>
      </g>
      <g id="Agrupar_51" data-name="Agrupar 51">
        <g id="Agrupar_50" data-name="Agrupar 50">
          <path id="Caminho_31" data-name="Caminho 31" d="M89.471,42.476a1.325,1.325,0,0,0-1.444.287l-3.969,3.969V19.746a1.325,1.325,0,0,0-1.325-1.325H72.55l3.7-3.7,0,0,3.562-3.561a4.042,4.042,0,0,0,0-5.715L75.691,1.328a4.042,4.042,0,0,0-5.715,0L66.413,4.891,62.108,9.2,52.884,18.42H11.748V5.31a1.325,1.325,0,0,0-1.325-1.325A10.435,10.435,0,0,0,0,14.408V70.7a1.328,1.328,0,0,0,.031.285,10.038,10.038,0,0,0,10.008,9.275h40.5l-7.627,7.627a1.325,1.325,0,0,0,.937,2.262H88.964a1.325,1.325,0,0,0,1.325-1.325V43.7A1.326,1.326,0,0,0,89.471,42.476ZM71.851,3.2a1.392,1.392,0,0,1,1.966,0l4.119,4.119a1.392,1.392,0,0,1,0,1.966L75.31,11.913,69.225,5.828Zm-4.5,4.5,6.085,6.085L71,16.219l-6.084-6.085ZM87.639,58.592H85.194a1.325,1.325,0,0,0,0,2.65h2.445v3.994H85.194a1.325,1.325,0,0,0,0,2.65h2.445v3.993H85.194a1.325,1.325,0,0,0,0,2.65h2.445v3.994H85.194a1.325,1.325,0,0,0,0,2.65h2.445v6.321h-40.6L60.431,74.109a1.325,1.325,0,0,0-1.874-1.874l-5.371,5.371H10.039a7.347,7.347,0,0,1-7.382-7.15q.011-.378.059-.748v0q.022-.176.053-.35l.007-.04q.028-.155.062-.309c.006-.029.013-.057.02-.086q.03-.13.065-.259c.013-.047.026-.093.04-.139.019-.067.04-.135.061-.2s.044-.132.067-.2c.016-.046.032-.092.049-.138.032-.087.066-.173.1-.258l.03-.074c.045-.106.092-.21.142-.314l.006-.013a7.8,7.8,0,0,1,5.423-4.241l.02,0c.11-.022.22-.042.332-.059l.056-.01c.1-.015.2-.027.3-.039l.086-.01c.1-.01.2-.016.3-.023l.094-.007q.195-.01.392-.01A1.325,1.325,0,0,0,11.748,61.6V51.988a1.325,1.325,0,1,0-2.65,0v8.367a10.351,10.351,0,0,0-5.953,2.881c-.172.168-.336.343-.495.521V14.408A7.786,7.786,0,0,1,9.1,6.748V46.687h0a1.325,1.325,0,1,0,2.65,0h0V21.071H50.234L42.908,28.4a1.325,1.325,0,0,0,1.874,1.874l9.589-9.589h0l8.674-8.674,6.084,6.085-.714.714,0,0L41.692,45.53l-6.085-6.085,5.267-5.267A1.325,1.325,0,1,0,39,32.3l-6.2,6.2a1.331,1.331,0,0,0-.093.1c-.01.012-.018.025-.028.037s-.037.05-.054.076-.019.031-.028.046-.029.05-.042.075-.016.033-.024.051-.023.052-.033.079c0,.009-.008.018-.011.028L29.9,46.319l-1.76,4.987a1.34,1.34,0,0,0-.053.2H23.682a1.325,1.325,0,0,0,0,2.65h36.7a1.325,1.325,0,0,0,0-2.65H34.051l8.082-2.853.02-.008c.031-.012.062-.025.093-.039l.036-.017c.032-.016.063-.033.094-.052l.03-.018c.032-.02.063-.043.093-.066l.023-.017a1.329,1.329,0,0,0,.107-.1L69.9,21.071H81.408V49.383L62.451,68.34a1.325,1.325,0,0,0,0,1.874,1.352,1.352,0,0,0,.1.091,1.324,1.324,0,0,0,1.774-.091h0L87.639,46.9ZM39.268,46.855l-3.8,1.34-2.529-2.529,1.34-3.8Z" transform="translate(0 -0.145)" fill="#fff"/>
        </g>
      </g>
    </g>
    <g id="Retângulo_26" data-name="Retângulo 26" transform="translate(266 150)" fill="#fff" stroke="#707070" stroke-width="1">
      <rect width="4" height="2" stroke="none"/>
      <rect x="0.5" y="0.5" width="3" height="1" fill="none"/>
    </g>
  </g>
</svg>
