<svg xmlns="http://www.w3.org/2000/svg" xmlns:xlink="http://www.w3.org/1999/xlink" width="20" height="20" viewBox="0 0 20 20">
  <defs>
    <clipPath id="clip-path">
      <rect id="Imagem_4" data-name="Imagem 4" width="20" height="20" transform="translate(278 610)" fill="#fff" stroke="#707070" stroke-width="1"/>
    </clipPath>
  </defs>
  <g id="Grupo_de_m치scara_4" data-name="Grupo de m치scara 4" transform="translate(-278 -610)" clip-path="url(#clip-path)">
    <g id="_68747470733a2f2f6564656e742e6769746875622e696f2f537570657254696e7949636f6e732f696d616765732f7376672f6769746875622e737667" data-name="68747470733a2f2f6564656e742e6769746875622e696f2f537570657254696e7949636f6e732f696d616765732f7376672f6769746875622e737667" transform="translate(278.078 610)">
      <rect id="Ret칙ngulo_7" data-name="Ret칙ngulo 7" width="19.845" height="19.845" rx="2.977" fill="#1b1817"/>
      <path id="Caminho_4" data-name="Caminho 4" d="M12.984,19.341c.543,0,.465.659.465.659H6.4s-.078-.659.465-.659c.5,0,.62-.233.62-.465l-.039-1.938c-2.752.62-3.333-1.085-3.333-1.085a2.535,2.535,0,0,0-1.085-1.434c-.93-.62.039-.62.039-.62a2.166,2.166,0,0,1,1.55,1.008,2.122,2.122,0,0,0,2.868.853A2.223,2.223,0,0,1,8.1,14.3c-2.209-.233-4.5-1.085-4.5-4.884A3.927,3.927,0,0,1,4.612,6.744a3.437,3.437,0,0,1,.116-2.6s.814-.271,2.713,1.008a8.994,8.994,0,0,1,4.961,0c1.9-1.279,2.713-1.008,2.713-1.008a3.437,3.437,0,0,1,.116,2.6A3.927,3.927,0,0,1,16.24,9.419c0,3.8-2.326,4.651-4.535,4.884a2.317,2.317,0,0,1,.7,1.86l-.039,2.713C12.364,19.109,12.481,19.341,12.984,19.341Z" fill="#fff"/>
    </g>
  </g>
</svg>
