<svg xmlns="http://www.w3.org/2000/svg" xmlns:xlink="http://www.w3.org/1999/xlink" width="20" height="20" viewBox="0 0 20 20">
  <defs>
    <clipPath id="clip-path">
      <rect id="Imagem_4" data-name="Imagem 4" width="20" height="20" transform="translate(238 610)" fill="#fff" stroke="#707070" stroke-width="1"/>
    </clipPath>
  </defs>
  <g id="Grupo_de_m치scara_3" data-name="Grupo de m치scara 3" transform="translate(-238 -610)" clip-path="url(#clip-path)">
    <g id="_68747470733a2f2f6564656e742e6769746875622e696f2f537570657254696e7949636f6e732f696d616765732f7376672f77686174736170702e737667" data-name="68747470733a2f2f6564656e742e6769746875622e696f2f537570657254696e7949636f6e732f696d616765732f7376672f77686174736170702e737667" transform="translate(238 610)">
      <rect id="Ret칙ngulo_6" data-name="Ret칙ngulo 6" width="20" height="20" rx="3" fill="#45d354"/>
      <path id="Caminho_2" data-name="Caminho 2" d="M12.031,10.664c-.117-.078-.234-.117-.352.039l-.469.625a.291.291,0,0,1-.352.039A4.537,4.537,0,0,1,8.75,9.531a.3.3,0,0,1,.117-.312l.352-.547c.078-.078.039-.156,0-.234L8.75,7.3c-.117-.312-.234-.273-.352-.273H8.086a.594.594,0,0,0-.391.2,2.105,2.105,0,0,0,.117,2.852,5.985,5.985,0,0,0,2.578,2.3c1.25.547,1.523.469,1.875.391a1.493,1.493,0,0,0,1.055-.742c.039-.117.234-.625.078-.7" fill="#fff"/>
      <path id="Caminho_3" data-name="Caminho 3" d="M10.313,15A5.339,5.339,0,0,1,7.5,14.141l-1.914.508.469-1.875a5.585,5.585,0,0,1-.781-2.734A5.176,5.176,0,0,1,10.43,4.883a4.885,4.885,0,0,1,4.922,4.961A5.153,5.153,0,0,1,10.313,15M4.1,16.133l3.242-.9a6.172,6.172,0,0,0,8.984-5.469,6,6,0,0,0-6.016-6.055A6.172,6.172,0,0,0,4.961,12.93" fill="#fff"/>
    </g>
  </g>
</svg>
